HIERARCHY
ROOT SpineBase
{
  OFFSET 0.000000 0.000000 0.000000
  CHANNELS 6 Xposition Yposition Zposition Zrotation Xrotation Yrotation
  JOINT SpineMid
  {
    OFFSET 0.000000 28.595901 0.000000
    CHANNELS 3 Zrotation Xrotation Yrotation
    JOINT SpineShoulder
    {
      OFFSET 0.063277 21.309154 -0.568383
      CHANNELS 3 Zrotation Xrotation Yrotation
      JOINT Neck
      {
        OFFSET 0.046353 7.068992 -0.441070
        CHANNELS 3 Zrotation Xrotation Yrotation
        JOINT Head
        {
          OFFSET 4.967117 13.361509 -0.653160
          CHANNELS 3 Zrotation Xrotation Yrotation
          End Site
          {
            OFFSET 0 0 0
          }
        }
      }
      JOINT ShoulderLeft
      {
        OFFSET -11.205059 -2.440772 -11.030399
        CHANNELS 3 Zrotation Xrotation Yrotation
        JOINT ElbowLeft
        {
          OFFSET -2.405380 -22.021172 -5.133307
          CHANNELS 3 Zrotation Xrotation Yrotation
          JOINT WristLeft
          {
            OFFSET 7.670313 -19.068164 -2.924881
            CHANNELS 3 Zrotation Xrotation Yrotation
            JOINT HandLeft
            {
              OFFSET 3.143483 -7.040379 0.129846
              CHANNELS 3 Zrotation Xrotation Yrotation
              JOINT HandTipLeft
              {
                OFFSET 2.618488 -6.236193 0.258681
                CHANNELS 3 Zrotation Xrotation Yrotation
                End Site
                {
                  OFFSET 0 0 0
                }
              }
              JOINT ThumbLeft
              {
                OFFSET 2.240201 2.164794 0.585777
                CHANNELS 3 Zrotation Xrotation Yrotation
                End Site
                {
                  OFFSET 0 0 0
                }
              }
            }
          }
        }
      }
      JOINT ShoulderRight
      {
        OFFSET 14.084200 -4.816572 11.019997
        CHANNELS 3 Zrotation Xrotation Yrotation
        JOINT ElbowRight
        {
          OFFSET -0.243949 -26.768826 1.639120
          CHANNELS 3 Zrotation Xrotation Yrotation
          JOINT WristRight
          {
            OFFSET 0.795653 -18.890088 -7.407910
            CHANNELS 3 Zrotation Xrotation Yrotation
            JOINT HandRight
            {
              OFFSET -0.668439 -5.922561 -2.037122
              CHANNELS 3 Zrotation Xrotation Yrotation
              JOINT HandTipRight
              {
                OFFSET 0.410681 -4.385231 -1.551800
                CHANNELS 3 Zrotation Xrotation Yrotation
                End Site
                {
                  OFFSET 0 0 0
                }
              }
              JOINT ThumbRight
              {
                OFFSET -2.752936 0.670605 -2.897194
                CHANNELS 3 Zrotation Xrotation Yrotation
                End Site
                {
                  OFFSET 0 0 0
                }
              }
            }
          }
        }
      }
    }
  }
  JOINT HipLeft
  {
    OFFSET -5.302060 1.285354 -6.277679
    CHANNELS 3 Zrotation Xrotation Yrotation
    JOINT KneeLeft
    {
      OFFSET -7.208295 -29.643427 0.330490
      CHANNELS 3 Zrotation Xrotation Yrotation
      JOINT AnkleLeft
      {
        OFFSET -4.864393 -32.754130 4.178470
        CHANNELS 3 Zrotation Xrotation Yrotation
        JOINT FootLeft
        {
          OFFSET 7.987492 -2.730090 -12.347557
          CHANNELS 3 Zrotation Xrotation Yrotation
          End Site
          {
            OFFSET 0 0 0
          }
        }
      }
    }
  }
  JOINT HipRight
  {
    OFFSET 5.703773 0.170493 0.961083
    CHANNELS 3 Zrotation Xrotation Yrotation
    JOINT KneeRight
    {
      OFFSET -3.301946 -27.267732 4.574914
      CHANNELS 3 Zrotation Xrotation Yrotation
      JOINT AnkleRight
      {
        OFFSET -8.094118 -33.408592 4.835439
        CHANNELS 3 Zrotation Xrotation Yrotation
        JOINT FootRight
        {
          OFFSET 1.879263 -8.234973 -3.618489
          CHANNELS 3 Zrotation Xrotation Yrotation
          End Site
          {
            OFFSET 0 0 0
          }
        }
      }
    }
  }
}
MOTION
Frames: 7
Frame Time: 0.033333
-40.937891 61.907293 358.686610 -17.765395 -30.678306 3.854512 1.330145 0.911422 -9.256902 0.018644 0.820813 -0.324870 1.058856 -1.303687 10.669976 0.000000 0.000000 0.000000 -6.572628 6.280687 11.471497 0.031422 17.800060 -1.896324 5.831637 -5.794053 -8.363319 -15.566575 8.794325 8.257259 0.000000 0.000000 0.000000 0.000000 0.000000 0.000000 26.539434 25.822408 -7.716779 -7.341289 8.047348 -1.317097 17.633818 37.005795 -15.669698 12.152596 -6.172882 9.888586 0.000000 0.000000 0.000000 0.000000 0.000000 0.000000 58.423288 53.230777 -47.505909 5.142756 -30.287281 14.891394 -40.775381 -35.090749 -14.569216 0.000000 0.000000 0.000000 53.452531 44.088593 -33.258500 -8.783239 -21.926001 0.375983 32.498179 11.428105 -16.841274 0.000000 0.000000 0.000000
-40.827432 61.913067 359.357257 -17.965654 -31.453121 2.030308 1.064010 0.822927 -7.590371 -0.270129 0.573656 -0.299489 6.239620 -0.432357 9.900250 0.000000 0.000000 0.000000 -7.289778 7.047021 12.367634 0.068806 17.329304 -2.220361 6.309560 -8.127224 -10.325385 -23.942228 12.100998 14.387081 0.000000 0.000000 0.000000 0.000000 0.000000 0.000000 20.808358 23.289385 -5.314777 -1.320550 10.823801 -1.483822 16.491570 34.596146 -14.539664 8.017194 -1.099856 7.801933 0.000000 0.000000 0.000000 0.000000 0.000000 0.000000 57.931787 55.484369 -46.976718 6.050425 -30.063531 15.311125 -40.346590 -34.663314 -13.619132 0.000000 0.000000 0.000000 53.832647 47.745378 -33.867526 -7.637106 -23.780921 1.084983 26.639907 7.911303 -14.145503 0.000000 0.000000 0.000000
-41.005685 62.366565 360.198788 -18.667422 -32.544259 -1.367859 0.774108 0.730774 -4.562987 -0.239128 0.511124 -0.330130 14.457663 2.739850 7.485724 0.000000 0.000000 0.000000 -8.076624 8.426615 13.431898 -0.171603 15.673498 -3.008385 6.077030 -9.239682 -11.814524 -28.590685 14.501819 19.949656 0.000000 0.000000 0.000000 0.000000 0.000000 0.000000 17.408037 20.132289 -3.981810 3.168481 19.047387 -2.197731 22.437514 26.764042 -15.839210 1.399231 4.981819 6.176965 0.000000 0.000000 0.000000 0.000000 0.000000 0.000000 58.020137 58.263441 -45.993643 5.309942 -29.518969 14.864515 -36.548312 -32.734037 -6.871520 0.000000 0.000000 0.000000 55.092648 52.560999 -34.404246 -7.243423 -25.577217 1.450682 19.210292 1.067782 -10.898918 0.000000 0.000000 0.000000
-40.374670 62.126779 359.246404 -17.766238 -31.385412 -4.837748 0.355410 0.325499 -0.576052 -0.729451 -0.924237 -0.414223 20.355185 4.271653 5.542068 0.000000 0.000000 0.000000 -9.045278 8.764974 14.257392 0.064964 14.693287 -3.802989 5.516567 -11.539567 -13.968363 -31.620530 15.831250 24.678416 0.000000 0.000000 0.000000 0.000000 0.000000 0.000000 14.615912 15.862844 -3.011544 7.394307 30.304583 -3.712611 32.788433 27.491174 -21.132004 -3.927325 -2.430354 8.636733 0.000000 0.000000 0.000000 0.000000 0.000000 0.000000 47.780778 59.221236 -35.461333 5.345350 -27.157131 13.802421 -28.240024 -24.314223 6.329577 0.000000 0.000000 0.000000 46.042649 53.958605 -25.810596 -5.560019 -23.099571 1.670335 33.375132 4.956759 -16.366266 0.000000 0.000000 0.000000
-39.641915 61.759741 357.756072 -16.775197 -29.788389 -10.093920 0.349307 0.587869 5.252628 -1.366719 -2.914801 -0.549144 25.014691 8.384508 2.390077 0.000000 0.000000 0.000000 -10.207437 8.404219 14.920349 0.503328 13.756519 -4.771533 5.098910 -15.811202 -17.518674 -35.092292 16.850539 30.520590 0.000000 0.000000 0.000000 0.000000 0.000000 0.000000 12.843095 11.242597 -2.528680 13.456377 42.248903 -7.907519 42.594489 41.914724 -33.424337 0.395358 -15.456309 16.710819 0.000000 0.000000 0.000000 0.000000 0.000000 0.000000 34.597672 59.625904 -21.130669 5.053790 -25.850056 12.807367 -27.620825 -23.078757 4.303838 0.000000 0.000000 0.000000 33.572520 54.211800 -12.957351 -3.997034 -19.525435 1.573705 39.395502 13.724898 -19.406890 0.000000 0.000000 0.000000
-38.918939 60.880649 354.979399 -15.589201 -26.260498 -11.667868 0.594654 0.149996 7.577935 -1.952859 -4.786213 -0.701666 25.526438 12.610752 0.063300 0.000000 0.000000 0.000000 -11.279068 7.202480 15.039546 -0.466288 12.454167 -5.242488 9.976736 -14.010586 -16.264734 -38.660469 14.648458 29.157146 0.000000 0.000000 0.000000 0.000000 0.000000 0.000000 11.845406 8.096328 -2.217192 21.866241 50.329965 -14.942140 49.045684 42.920096 -38.655038 6.054820 -19.101122 23.884736 0.000000 0.000000 0.000000 0.000000 0.000000 0.000000 25.408059 53.647831 -10.507346 4.597875 -23.055412 11.133869 -26.959053 -21.777109 -0.149040 0.000000 0.000000 0.000000 25.416609 45.616232 -3.513530 -3.164175 -12.183024 0.551072 60.775661 45.360552 -37.866259 0.000000 0.000000 0.000000
-38.240081 60.197188 352.947771 -14.534042 -23.604597 -13.323445 0.715979 -0.144433 9.816340 -2.304986 -5.706425 -0.764649 22.958120 17.778002 -1.609884 0.000000 0.000000 0.000000 -12.176949 6.220082 14.940377 -0.561705 11.043863 -5.992383 13.994944 -12.162850 -14.844900 -34.452420 12.292104 22.477832 0.000000 0.000000 0.000000 0.000000 0.000000 0.000000 12.475410 7.985513 -2.275534 23.967768 50.150492 -17.348675 50.761960 41.980759 -39.806877 9.369555 -15.765564 26.052487 0.000000 0.000000 0.000000 0.000000 0.000000 0.000000 19.542416 48.404370 -3.325426 4.545590 -20.734739 9.887613 -27.219358 -21.238330 -7.236136 0.000000 0.000000 0.000000 20.329999 38.820178 2.588827 -1.937746 -6.508034 -0.153038 66.215533 61.268775 -46.087234 0.000000 0.000000 0.000000
